# xmcd
#
# Track frame offsets:
#	200
#	70257
#	133195
#	204905
#	256100
#
# Disc length: 3475 seconds
#
# Revision: 0
# Processed by: cddbd v1.5.2PL0 Copyright (c) Steve Scherf et al.
# Submitted via: dBpowerAMP V4.0
#
DISCID=420d9105
DTITLE=Country Music Time - Special Holiday Edition Featuring Kathy Mattea
DYEAR=1994
DGENRE=Country
TTITLE0=What A Wonderful Beginning/Nothing But A Child
TTITLE1=Mary, Did You Know/Brightest And Best
TTITLE2=The Star/There's A New Kid In Towm
TTITLE3=Good News/Show Outcue
TTITLE4=Promo
EXTD=
EXTT0=
EXTT1=
EXTT2=
EXTT3=
EXTT4=
PLAYORDER=
